<svg width="387" height="159" viewBox="0 0 387 159" fill="none" xmlns="http://www.w3.org/2000/svg">
<path d="M342.126 155L346.409 155L350.692 155.001C350.692 157.21 348.618 159 346.409 159C344.2 159 342.126 157.209 342.126 155Z" fill="#282624"/>
<path d="M342.017 0L266 103H268H275.5L342.669 12.6888L342.139 94.9644C342.904 93.9194 343.798 92.9539 344.825 92.0799C346.666 90.5121 348.831 89.326 351.258 88.4959L351.258 0H342.017Z" fill="#282624"/>
<path d="M346.409 155L350.692 155.001L351.258 124.504C348.831 123.674 346.666 122.488 344.825 120.92C343.792 120.041 342.894 119.07 342.126 118.018L342.126 155L346.409 155Z" fill="#282624"/>
<path fill-rule="evenodd" clip-rule="evenodd" d="M378.857 91.8121C374.096 88.5928 367.812 87 361.206 87C357.573 87 354.22 87.483 351.258 88.4959C348.831 89.326 346.666 90.5121 344.825 92.0799C343.798 92.9539 342.904 93.9194 342.139 94.9644C340.53 97.1617 339.492 100.211 338.998 103H275.5H268H266L266.672 108.372C266.859 109.873 268.135 111 269.648 111H338.998C339.491 113.782 340.524 115.824 342.126 118.018C342.894 119.07 343.792 120.041 344.825 120.92C346.666 122.488 348.831 123.674 351.258 124.504C354.22 125.517 357.573 126 361.206 126C367.812 126 374.096 124.407 378.857 121.188C383.713 117.904 387 112.873 387 106.5C387 100.127 383.713 95.0956 378.857 91.8121ZM350.011 98.1714C347.926 99.9464 346.657 102.62 346.657 106.5C346.657 110.38 347.926 113.054 350.011 114.829C352.187 116.682 355.78 118 361.206 118C366.636 118 371.249 116.675 374.376 114.561C377.408 112.511 379 109.792 379 106.5C379 103.208 377.408 100.489 374.376 98.4392C371.249 96.3247 366.636 95 361.206 95C355.78 95 352.187 96.3183 350.011 98.1714Z" fill="url(#paint0_linear_1786_1529)"/>
<path d="M9.88501 102.821L68.1651 23V14.2784C68.1651 13.2115 66.7884 12.7935 66.2013 13.6821L0 103.367L0.847286 108.493C1.03557 109.292 1.38076 109.947 1.88286 110.456C2.38495 110.892 3.10672 111.11 4.04815 111.11H110.008C111.108 111.11 112 110.215 112 109.11V102.821H9.88501Z" fill="#282624"/>
<path fill-rule="evenodd" clip-rule="evenodd" d="M95.0638 1.3631e-07C97.2647 1.38693e-05 99.0488 1.79089 99.0488 4.00002L95.9212 4.00001C99.0488 4.00003 99.0488 4.00002 99.0488 4.00002V34.1061C99.0488 41.7665 97.7017 47.5429 93.909 51.2107C91.1219 53.906 87.5452 54.9328 83.8601 55.2874V155C83.8601 155 83.8601 155.001 79.8751 155.001C75.8901 155.001 75.8901 155 75.8901 155V55.2165C72.0694 54.7199 68.5768 53.3713 65.9153 50.4609C62.4428 46.6635 61.1914 41.0649 61.1914 34.1062V4.00077C61.1914 4.00077 61.1914 4 65.1764 4C69.1614 4 69.1614 4.00019 69.1614 4.00019L69.1614 34.1062C69.1614 40.4146 70.3598 43.4906 71.7868 45.0511C72.6476 45.9924 73.9072 46.7198 75.8901 47.1175V4.00132C75.8901 4.00132 75.8901 4 79.8751 4C83.8601 4 83.8601 4.00033 83.8601 4.00033V47.2339C86.1105 46.9331 87.4685 46.3302 88.3793 45.4495C89.7313 44.142 91.0788 41.2438 91.0788 34.1062V4.00068C91.0788 4.00068 91.0788 3.99998 94.2067 3.99999L91.0788 4.00068C91.0788 1.79154 92.863 -1.35967e-05 95.0638 1.3631e-07ZM79.8751 4L83.8601 4.00033C83.8601 1.79119 82.076 6.98717e-07 79.8751 7.9402e-07C77.6743 8.89322e-07 75.8901 1.79086 75.8901 4L79.8751 4ZM65.1764 4L69.1614 4.00019C69.1614 1.79105 67.3772 -5.72139e-07 65.1764 0C62.9755 3.33721e-07 61.1914 1.79163 61.1914 4.00077L65.1764 4ZM79.8751 155.001L75.8901 155C75.8901 157.209 77.6743 159.001 79.8751 159.001C82.076 159.001 83.8601 157.209 83.8601 155L79.8751 155.001Z" fill="url(#paint1_linear_1786_1529)"/>
<path d="M189.001 71C177.421 71 168 80.4205 168 92.0002C168 103.579 177.421 113 189.001 113C200.58 113 210 103.579 210 92.0002C210 80.4208 200.58 71 189.001 71ZM189.001 105.423C181.599 105.423 175.577 99.4015 175.577 92.0002C175.577 84.5987 181.599 78.577 189.001 78.577C196.402 78.577 202.423 84.5985 202.423 92.0002C202.423 99.4015 196.402 105.423 189.001 105.423Z" fill="url(#paint2_linear_1786_1529)"/>
<path d="M228.734 41.6084C222.409 34.9658 215.225 29.3929 207.956 25.4927C199.929 21.1843 192.11 19 184.717 19C176.623 19 171.23 21.6461 168.23 27.0887C165.742 31.6029 165.336 37.3448 164.906 43.4238C164.161 53.9397 163.392 64.8131 152.689 72.3178C142.874 79.1994 135.866 86.4219 131.859 93.785C127.936 100.993 126.981 108.326 129.099 114.991C131.612 122.898 138.216 129.513 148.199 134.121C157.949 138.621 170.578 141 184.719 141C199.347 141 215.643 135.161 228.31 125.381C234.869 120.317 240.087 114.542 243.817 108.219C247.92 101.264 250 93.9919 250 86.6061C250 72.4155 242.05 55.594 228.734 41.6084ZM223.707 119.462C212.312 128.26 197.737 133.513 184.719 133.513C171.661 133.513 160.125 131.374 151.358 127.327C143.341 123.627 138.122 118.58 136.263 112.731C134.754 107.984 135.495 102.81 138.465 97.354C141.914 91.0153 148.155 84.652 157.013 78.4412C170.637 68.8892 171.616 55.0617 172.402 43.9507C173.281 31.5284 174.063 26.4875 184.717 26.4875C196.779 26.4875 211.195 34.0665 223.282 46.7612C235.307 59.3901 242.486 74.2855 242.486 86.6059C242.486 98.4446 235.817 110.113 223.707 119.462Z" fill="#282624"/>
<defs>
<linearGradient id="paint0_linear_1786_1529" x1="423.972" y1="13.25" x2="245.845" y2="95.4487" gradientUnits="userSpaceOnUse">
<stop stop-color="#F28738"/>
<stop offset="1" stop-color="#CD5C08"/>
</linearGradient>
<linearGradient id="paint1_linear_1786_1529" x1="146.222" y1="13.2501" x2="-22.9088" y2="85.492" gradientUnits="userSpaceOnUse">
<stop stop-color="#F28738"/>
<stop offset="1" stop-color="#CD5C08"/>
</linearGradient>
<linearGradient id="paint2_linear_1786_1529" x1="222.833" y1="74.5" x2="168" y2="107.75" gradientUnits="userSpaceOnUse">
<stop stop-color="#F28738"/>
<stop offset="1" stop-color="#CD5C08"/>
</linearGradient>
</defs>
</svg>
