<svg width="18" height="19" viewBox="0 0 18 19" fill="none" stroke="#CCC7C3" xmlns="http://www.w3.org/2000/svg">
<g clip-path="url(#clip0_852_3678)">
<path d="M1.64 10.2518C1.64 16.4089 6.21956 17.9482 8.5093 17.9482C9.6818 17.9482 11.3795 17.6392 12.8965 16.7444M15.2523 14.4848C15.9289 13.4057 16.36 12.0189 16.36 10.2518C16.36 6.33223 13.9055 3.53295 11.6862 1.92802C10.6831 1.2026 9.43294 1.99931 9.43294 3.23721V3.51743C9.43294 4.76585 8.90804 7.04463 7.44948 7.99242C6.70482 8.47634 5.90059 7.75206 5.81009 6.86866L5.73577 6.14322C5.64938 5.29988 4.79043 4.78792 4.11639 5.30211C3.5345 5.74597 2.94003 6.35005 2.47942 7.12511" stroke-width="2" stroke-linecap="round"/>
<path d="M6.12 14.8511C6.12 17.3287 8.16801 17.9481 9.19197 17.9481C10.088 17.9481 11.88 17.3287 11.88 14.8511C11.88 13.892 11.3951 13.2446 10.9258 12.871C10.5983 12.6103 10.1378 12.8444 10.0252 13.2615C9.8784 13.8051 9.3479 14.1468 9.07768 13.6589C8.83057 13.2129 8.83057 12.5438 8.83057 12.1411C8.83057 11.5866 8.30378 11.2276 7.88001 11.5536C7.03048 12.2071 6.12 13.3154 6.12 14.8511Z"  stroke-width="1.5"/>
</g>
<defs>
<clipPath id="clip0_852_3678">
<rect width="18" height="19" fill="white"/>
</clipPath>
</defs>
</svg>
