<svg width="1442" height="220" viewBox="0 0 1442 220" fill="none" xmlns="http://www.w3.org/2000/svg">
<path d="M31 93.2702H1V1H1441V93.2702L1411 98.0309C1381 102.792 1321 112.313 1261 136.117C1201 159.921 1141 198.007 1081 212.29C1021 226.572 961 217.05 901 193.246C841 169.442 781 131.356 721 98.0309C661 64.7055 601 36.1408 541 59.9447C481 83.7485 421 159.921 361 174.203C301 188.486 241 140.878 181 117.074C121 93.2702 61 93.2702 31 93.2702Z" fill="#FFC295" stroke="#FFC295"/>
<path fill-rule="evenodd" clip-rule="evenodd" d="M616.576 18.0264C597.801 14.2593 579.164 13.7569 560.598 17.956C558.446 18.4427 556.308 17.0904 555.821 14.9355C555.335 12.7807 556.686 10.6392 558.838 10.1525C578.7 5.66039 598.492 6.23892 618.145 10.1824C620.309 10.6164 621.711 12.7242 621.277 14.8903C620.844 17.0564 618.739 18.4605 616.576 18.0264ZM548.012 17.2525C548.774 19.3258 547.713 21.6248 545.642 22.3876C544.666 22.7475 543.688 23.1217 542.711 23.5103C541.631 23.9396 540.55 24.387 539.468 24.8519C537.441 25.7227 535.092 24.7829 534.222 22.7526C533.352 20.7224 534.291 18.3706 536.319 17.4997C537.465 17.0072 538.613 16.532 539.762 16.0751C540.803 15.6614 541.843 15.2631 542.884 14.8797C544.954 14.1169 547.25 15.1792 548.012 17.2525ZM525.136 27.3285C526.221 29.252 525.543 31.6921 523.622 32.7785C521.575 33.9363 519.525 35.1433 517.472 36.3952C515.587 37.5441 513.13 36.9459 511.982 35.059C510.835 33.1722 511.432 30.7112 513.317 29.5622C515.439 28.2682 517.565 27.0166 519.693 25.8128C521.614 24.7264 524.051 25.405 525.136 27.3285ZM662.677 28.5556C663.556 26.5292 665.908 25.5998 667.932 26.4797C673.852 29.0537 679.763 31.8098 685.665 34.7015C687.646 35.6725 688.466 38.0683 687.497 40.0526C686.527 42.0369 684.134 42.8582 682.153 41.8872C676.342 39.04 670.542 36.3361 664.75 33.8178C662.726 32.9379 661.798 30.5819 662.677 28.5556ZM503.483 40.655C504.744 42.4676 504.298 44.9608 502.488 46.2235C496.693 50.2659 490.886 54.5657 485.06 59.0228C483.307 60.3641 480.8 60.0285 479.461 58.2732C478.121 56.5178 478.457 54.0075 480.21 52.6662C486.098 48.1609 492.003 43.7874 497.921 39.6593C499.732 38.3965 502.222 38.8423 503.483 40.655ZM694.762 43.7488C695.785 41.7914 698.198 41.0349 700.153 42.059C702.066 43.061 703.977 44.0735 705.888 45.095C707.834 46.1353 708.57 48.5586 707.531 50.5074C706.492 52.4562 704.072 53.1927 702.126 52.1523C700.233 51.1404 698.341 50.1383 696.449 49.1474C694.494 48.1232 693.739 45.7062 694.762 43.7488ZM3.72522 49.3562C4.12405 49.2224 4.55094 49.1499 4.99473 49.1499H14.1352C16.3415 49.1499 18.13 50.9408 18.13 53.1499C18.13 55.3591 16.3415 57.1499 14.1352 57.1499H4.99473C4.55094 57.1499 4.12405 57.0775 3.72522 56.9437C3.32639 57.0775 2.8995 57.1499 2.45571 57.1499H1.9479V55.737C1.35666 55.0396 1 54.1365 1 53.1499C1 52.1634 1.35666 51.2603 1.9479 50.5629V49.1499H2.45571C2.8995 49.1499 3.32639 49.2224 3.72522 49.3562ZM18.2654 53.1499C18.2654 50.9408 20.0539 49.1499 22.2601 49.1499H25.3069C25.7507 49.1499 26.1776 49.2224 26.5764 49.3562C26.9753 49.2224 27.4022 49.1499 27.846 49.1499H28.8616C29.3054 49.1499 29.7322 49.2224 30.1311 49.3562C30.5299 49.2224 30.9568 49.1499 31.4006 49.1499H31.9084C32.7448 49.1499 33.6059 49.1499 34.4898 49.1505C36.6961 49.1518 38.4835 50.9437 38.4822 53.1528C38.4809 55.3619 36.6914 57.1518 34.4851 57.1505C33.6039 57.1499 32.7451 57.1499 31.9084 57.1499H31.4006C30.9568 57.1499 30.5299 57.0775 30.1311 56.9437C29.7322 57.0775 29.3054 57.1499 28.8616 57.1499H27.846C27.4022 57.1499 26.9753 57.0775 26.5764 56.9437C26.1776 57.0775 25.7507 57.1499 25.3069 57.1499H22.2601C20.0539 57.1499 18.2654 55.3591 18.2654 53.1499ZM1440.68 57.1004L1440.17 57.1812C1439.73 57.2518 1439.29 57.2463 1438.87 57.1741C1438.49 57.373 1438.08 57.5144 1437.63 57.585L1436.62 57.7466C1436.17 57.8172 1435.73 57.8116 1435.31 57.7395C1434.94 57.9384 1434.52 58.0798 1434.08 58.1504L1431.03 58.635C1428.85 58.9816 1426.8 57.4938 1426.46 55.312C1426.11 53.1303 1427.6 51.0806 1429.78 50.7341L1432.82 50.2495C1433.27 50.1788 1433.71 50.1844 1434.13 50.2565C1434.5 50.0577 1434.92 49.9163 1435.36 49.8456L1436.38 49.6841C1436.82 49.6134 1437.26 49.619 1437.68 49.6911C1438.06 49.4923 1438.47 49.3509 1438.92 49.2802L1439.42 49.1995L1439.65 50.64C1440.32 51.2332 1440.8 52.0539 1440.95 53.007C1441.1 53.9602 1440.9 54.8881 1440.45 55.6598L1440.68 57.1004ZM43.4268 53.1753C43.458 50.9664 45.2716 49.201 47.4776 49.2323C60.5198 49.4171 76.5327 50.0164 94.3296 51.9647C96.5228 52.2048 98.1063 54.1797 97.8666 56.3757C97.6268 58.5718 95.6545 60.1574 93.4613 59.9173C75.9986 58.0056 60.255 57.4141 47.3646 57.2315C45.1586 57.2002 43.3956 55.3842 43.4268 53.1753ZM1426.22 55.3493C1426.57 57.5311 1425.08 59.5807 1422.9 59.9273L1413.76 61.3811C1413.32 61.4518 1412.88 61.4462 1412.46 61.3741C1412.08 61.5729 1411.67 61.7143 1411.23 61.785L1410.72 61.8657C1409.88 61.9991 1409.02 62.1361 1408.13 62.2769C1405.96 62.6243 1403.91 61.1372 1403.56 58.9556C1403.21 56.7739 1404.7 54.7238 1406.88 54.3764C1407.76 54.2353 1408.63 54.0981 1409.46 53.9648L1409.97 53.884C1410.42 53.8134 1410.85 53.819 1411.27 53.8911C1411.65 53.6922 1412.07 53.5508 1412.51 53.4802L1421.65 52.0264C1423.83 51.6798 1425.88 53.1675 1426.22 55.3493ZM714.681 54.4107C715.749 52.4777 718.18 51.7776 720.11 52.8471C721.054 53.3699 721.997 53.894 722.941 54.4192C723.947 54.9796 724.954 55.5412 725.96 56.1041C727.886 57.1813 728.576 59.6181 727.5 61.5468C726.424 63.4755 723.991 64.1657 722.064 63.0885C721.062 62.5281 720.06 61.969 719.059 61.4113C718.12 60.8886 717.181 60.3671 716.242 59.8472C714.312 58.7777 713.613 56.3437 714.681 54.4107ZM1398.49 59.776C1398.86 61.9548 1397.39 64.0167 1395.21 64.3813C1393.54 64.6614 1391.82 64.9532 1390.06 65.2576C1387.88 65.6326 1385.82 64.1717 1385.44 61.9946C1385.07 59.8175 1386.53 57.7486 1388.7 57.3737C1390.48 57.0669 1392.21 56.773 1393.89 56.4911C1396.07 56.1264 1398.13 57.5971 1398.49 59.776ZM130.831 61.7635C131.311 59.6072 133.445 58.2483 135.599 58.7284C140.628 59.8497 145.719 61.1025 150.852 62.5023C152.98 63.0828 154.236 65.2814 153.656 67.4129C153.077 69.5444 150.881 70.8017 148.752 70.2211C143.746 68.8557 138.776 67.6327 133.862 66.5372C131.709 66.0571 130.352 63.9198 130.831 61.7635ZM1380.39 62.8998C1380.79 65.0715 1379.36 67.1603 1377.19 67.5654C1372.3 68.4797 1367.15 69.4837 1361.8 70.5897C1359.64 71.036 1357.52 69.6438 1357.08 67.4802C1356.63 65.3166 1358.02 63.2009 1360.18 62.7546C1365.59 61.6374 1370.79 60.6236 1375.73 59.701C1377.9 59.2959 1379.98 60.7281 1380.39 62.8998ZM735.568 66.1055C736.658 64.1852 739.097 63.5137 741.015 64.6058C749.991 69.7174 758.966 74.892 767.93 80.0603L767.973 80.0851C776.954 85.2635 785.925 90.4355 794.894 95.5424C796.812 96.6344 797.482 99.0765 796.392 100.997C795.301 102.917 792.862 103.589 790.944 102.497C781.954 97.3773 772.965 92.1945 763.986 87.0179L763.961 87.0032C754.988 81.8297 746.026 76.6624 737.065 71.5599C735.148 70.4678 734.477 68.0258 735.568 66.1055ZM158.402 68.811C159.07 66.7054 161.315 65.5401 163.418 66.2083C165.077 66.7355 166.739 67.2789 168.402 67.8392C170.494 68.5435 171.619 70.8118 170.915 72.9057C170.212 74.9996 167.947 76.1261 165.855 75.4218C164.236 74.8763 162.618 74.3471 161.002 73.8336C158.899 73.1653 157.735 70.9167 158.402 68.811ZM175.57 74.5869C176.365 72.5264 178.678 71.5017 180.736 72.2982C181.552 72.6141 182.369 72.9343 183.185 73.259C184.205 73.6644 185.224 74.0764 186.242 74.4946C188.284 75.3327 189.26 77.6691 188.423 79.7131C187.586 81.7571 185.253 82.7346 183.211 81.8965C182.219 81.4892 181.228 81.0883 180.236 80.6942C179.443 80.3786 178.649 80.0673 177.856 79.7601C175.798 78.9636 174.774 76.6475 175.57 74.5869ZM1323.98 75.3083C1324.55 77.4415 1323.29 79.6363 1321.16 80.2106C1306.72 84.1025 1291.62 88.7186 1276.38 94.2183C1274.3 94.9671 1272.01 93.8892 1271.27 91.8109C1270.52 89.7325 1271.6 87.4406 1273.67 86.6918C1289.15 81.1062 1304.46 76.4258 1319.08 72.4856C1321.21 71.9113 1323.4 73.1751 1323.98 75.3083ZM196.029 83.0606C196.954 81.0552 199.328 80.1809 201.331 81.1076C212.034 86.0606 222.843 91.5519 233.576 97.0039C240.419 100.48 247.231 103.941 253.963 107.235C255.945 108.205 256.767 110.601 255.798 112.585C254.829 114.57 252.437 115.393 250.455 114.423C243.478 111.008 236.581 107.504 229.716 104.015C219.122 98.6312 208.603 93.2859 197.979 88.3696C195.976 87.4429 195.103 85.0659 196.029 83.0606ZM440.14 89.3985C441.485 91.1495 441.158 93.6609 439.41 95.0079C421.041 109.158 402.416 122.211 383.648 130.654C381.636 131.56 379.271 130.66 378.367 128.645C377.463 126.63 378.361 124.262 380.374 123.357C398.248 115.315 416.264 102.744 434.538 88.6672C436.287 87.3201 438.795 87.6476 440.14 89.3985ZM1266.46 93.6174C1267.26 95.675 1266.24 97.9948 1264.19 98.7987C1263.38 99.1151 1262.57 99.434 1261.76 99.7555C1260.75 100.159 1259.73 100.567 1258.72 100.979C1256.67 101.809 1254.34 100.821 1253.51 98.7737C1252.69 96.7262 1253.67 94.394 1255.72 93.5646C1256.75 93.1458 1257.78 92.731 1258.81 92.3203C1259.64 91.9932 1260.46 91.6689 1261.28 91.3472C1263.34 90.5433 1265.65 91.5597 1266.46 93.6174ZM1245.61 102.126C1246.5 104.149 1245.58 106.509 1243.56 107.397C1241.55 108.279 1239.54 109.174 1237.54 110.079C1235.52 110.986 1233.16 110.088 1232.25 108.073C1231.35 106.059 1232.24 103.691 1234.26 102.784C1236.29 101.869 1238.32 100.965 1240.35 100.072C1242.37 99.1839 1244.72 100.104 1245.61 102.126ZM1224.46 111.678C1225.4 113.677 1224.55 116.06 1222.55 117.002C1216.59 119.813 1210.63 122.685 1204.65 125.582C1202.67 126.545 1200.28 125.714 1199.32 123.726C1198.36 121.738 1199.19 119.345 1201.17 118.382C1207.16 115.479 1213.15 112.593 1219.14 109.764C1221.14 108.823 1223.52 109.68 1224.46 111.678ZM837.785 123.745C838.803 121.784 841.215 121.022 843.172 122.041C849.306 125.234 855.436 128.342 861.563 131.343C863.545 132.314 864.366 134.709 863.396 136.694C862.427 138.678 860.034 139.5 858.052 138.529C851.86 135.496 845.671 132.359 839.486 129.139C837.529 128.12 836.767 125.705 837.785 123.745ZM296.557 129.495C297.188 127.378 299.413 126.174 301.527 126.806C307.734 128.66 313.912 130.146 320.065 131.173C322.241 131.536 323.711 133.597 323.349 135.776C322.986 137.956 320.928 139.428 318.752 139.064C312.223 137.975 305.718 136.407 299.243 134.472C297.129 133.84 295.926 131.612 296.557 129.495ZM368.829 132.184C369.419 134.312 368.175 136.517 366.049 137.108C364.834 137.446 363.618 137.761 362.4 138.052C361.291 138.316 360.182 138.56 359.074 138.785C356.911 139.222 354.804 137.821 354.367 135.656C353.93 133.491 355.329 131.381 357.491 130.943C358.51 130.737 359.529 130.512 360.548 130.269C361.667 130.002 362.788 129.712 363.91 129.4C366.036 128.809 368.238 130.055 368.829 132.184ZM346.113 136.601C346.185 138.809 344.456 140.657 342.251 140.729C339.994 140.802 337.74 140.804 335.489 140.738C333.284 140.673 331.548 138.83 331.613 136.622C331.677 134.414 333.517 132.676 335.723 132.741C337.815 132.802 339.904 132.801 341.991 132.733C344.196 132.661 346.042 134.393 346.113 136.601ZM871.766 140.67C872.684 138.661 875.055 137.779 877.061 138.699C879.144 139.654 881.227 140.595 883.309 141.521C885.326 142.418 886.234 144.781 885.339 146.8C884.443 148.819 882.083 149.729 880.067 148.833C877.955 147.894 875.844 146.94 873.734 145.972C871.728 145.052 870.847 142.678 871.766 140.67ZM1158.72 143.251C1159.64 145.259 1158.76 147.633 1156.75 148.554C1138.21 157.064 1119.57 164.855 1100.88 170.764C1098.77 171.429 1096.53 170.26 1095.87 168.153C1095.2 166.047 1096.37 163.8 1098.47 163.135C1116.72 157.367 1135.02 149.726 1153.42 141.281C1155.43 140.361 1157.8 141.242 1158.72 143.251ZM893.862 150.433C894.691 148.386 897.021 147.399 899.065 148.23C900.123 148.659 901.18 149.084 902.237 149.504C903.196 149.885 904.155 150.263 905.114 150.637C907.169 151.438 908.187 153.757 907.387 155.816C906.586 157.874 904.271 158.893 902.215 158.092C901.239 157.711 900.264 157.327 899.288 156.939C898.213 156.512 897.138 156.08 896.063 155.643C894.018 154.813 893.033 152.481 893.862 150.433ZM914.494 158.447C915.222 156.362 917.5 155.262 919.583 155.99C937.441 162.234 955.267 167.102 973.066 170.349C975.236 170.745 976.675 172.827 976.28 175.001C975.885 177.174 973.805 178.615 971.634 178.219C953.377 174.889 935.147 169.906 916.949 163.543C914.866 162.814 913.767 160.533 914.494 158.447ZM1087.61 170.515C1088.15 172.657 1086.86 174.832 1084.72 175.372C1083.63 175.647 1082.54 175.914 1081.45 176.174C1080.42 176.42 1079.39 176.658 1078.36 176.89C1076.21 177.375 1074.07 176.02 1073.59 173.865C1073.11 171.71 1074.46 169.57 1076.61 169.085C1077.61 168.861 1078.6 168.63 1079.6 168.392C1080.65 168.141 1081.71 167.881 1082.76 167.615C1084.9 167.075 1087.07 168.373 1087.61 170.515ZM1066.15 175.294C1066.49 177.476 1065.01 179.526 1062.83 179.873C1060.74 180.205 1058.65 180.51 1056.57 180.788C1054.38 181.079 1052.37 179.54 1052.08 177.35C1051.79 175.161 1053.33 173.149 1055.51 172.858C1057.53 172.589 1059.55 172.293 1061.57 171.972C1063.75 171.625 1065.8 173.113 1066.15 175.294ZM1044.54 178.113C1044.69 180.317 1043.03 182.227 1040.83 182.381C1034.51 182.821 1028.19 183.023 1021.87 182.998C1019.66 182.989 1017.88 181.191 1017.89 178.982C1017.9 176.773 1019.69 174.989 1021.9 174.998C1028.03 175.022 1034.15 174.826 1040.28 174.4C1042.48 174.247 1044.38 175.909 1044.54 178.113Z" fill="#FFF8ED"/>
</svg>
