<svg width="199" height="104" viewBox="0 0 199 104" fill="none" xmlns="http://www.w3.org/2000/svg">
<path fill-rule="evenodd" clip-rule="evenodd" d="M66.3229 12.6644C52.92 16.1521 38.847 23.4753 27.4729 31.1636C20.8072 35.6693 15.1704 40.232 11.2314 44.099C9.25759 46.0367 7.75984 47.7514 6.77422 49.1578C5.71019 50.6761 5.50947 51.4662 5.50947 51.6568C5.50947 51.8475 5.7103 52.6377 6.7747 54.1565C7.76066 55.5633 9.25892 57.2783 11.2334 59.2165C15.1735 63.0844 20.8121 67.648 27.4795 72.1544C38.8681 79.8517 52.9611 87.1822 66.3778 90.6634C58.349 80.3589 53.8186 67.1752 53.8186 52.2348C53.8186 37.3279 58.1139 23.2879 66.3229 12.6644ZM72.4437 6.20358C75.4943 5.73153 76.9045 9.03353 75.0996 10.7869C64.9797 20.6176 59.3281 35.6245 59.3281 52.2348C59.3281 68.7671 65.2372 82.6972 75.1398 92.5541C76.913 94.3191 75.4859 97.58 72.4602 97.1126C55.8613 94.5482 37.9105 85.4861 24.2134 76.2285C17.3367 71.5807 11.4294 66.8145 7.20974 62.6723C5.10428 60.6055 3.36912 58.6454 2.14166 56.8941C0.992628 55.2546 0 53.4036 0 51.6568C0 49.9102 0.992338 48.0596 2.14105 46.4204C3.36815 44.6694 5.1028 42.7097 7.20765 40.6434C11.4261 36.502 17.3317 31.7368 24.2066 27.0897C37.9002 17.8334 55.8468 8.77175 72.4437 6.20358Z" fill="#282624"/>
<path fill-rule="evenodd" clip-rule="evenodd" d="M190.137 33.6172C184.996 35.6167 179.77 38.7691 175.35 42.1046C172.243 44.4492 169.638 46.8068 167.838 48.7768C166.934 49.7657 166.277 50.6097 165.862 51.2687C165.623 51.6474 165.516 51.8844 165.469 52C165.516 52.1156 165.623 52.3526 165.862 52.7313C166.277 53.3903 166.934 54.2343 167.838 55.2231C169.638 57.1932 172.243 59.5508 175.35 61.8954C179.77 65.2308 184.996 68.3833 190.137 70.3828C187.18 65.1153 185.377 58.7727 185.377 52C185.377 45.2272 187.18 38.8847 190.137 33.6172ZM195.5 26.7403C198.449 26.2251 199.945 29.3778 198.354 31.2127C193.947 36.2948 190.875 43.7295 190.875 52C190.875 60.2705 193.947 67.7052 198.354 72.7873C199.945 74.6222 198.449 77.7749 195.5 77.2596C187.21 75.8115 178.456 70.8332 171.891 65.8795C168.577 63.3781 165.715 60.8035 163.653 58.5471C162.625 57.4227 161.753 56.33 161.121 55.3276C160.554 54.4271 159.937 53.2301 159.937 52C159.937 50.7699 160.554 49.5729 161.121 48.6724C161.753 47.67 162.625 46.5773 163.653 45.4529C165.715 43.1965 168.577 40.6219 171.891 38.1205C178.456 33.1668 187.21 28.1885 195.5 26.7403Z" fill="#282624"/>
<path fill-rule="evenodd" clip-rule="evenodd" d="M158.293 10.9178C159.42 11.8581 159.509 13.4651 158.492 14.507C152.64 20.5071 148.188 25.1304 145.123 30.5965C142.109 35.9713 140.371 42.3032 140.371 51.7097C140.371 61.1025 142.182 67.6638 145.25 73.2394C148.359 78.889 152.826 83.6678 158.495 89.4956C159.51 90.5388 159.418 92.1456 158.291 93.0845C157.163 94.0234 155.426 93.9388 154.412 92.8956C148.783 87.1099 143.836 81.8721 140.355 75.5452C136.832 69.1444 134.878 61.7694 134.878 51.7097C134.878 41.6635 136.748 34.4948 140.246 28.2561C143.693 22.1087 148.655 17.0057 154.414 11.1019C155.43 10.06 157.167 9.97756 158.293 10.9178Z" fill="#282624"/>
<path fill-rule="evenodd" clip-rule="evenodd" d="M130.717 0.408789C131.948 1.17272 132.3 2.7491 131.504 3.92972C126.489 11.3667 122.635 17.2504 119.985 24.2516C117.351 31.212 115.862 39.4118 115.862 51.4182C115.862 63.5597 117.424 72.0601 120.105 79.2914C122.799 86.5598 126.666 92.6715 131.523 100.1C132.302 101.291 131.927 102.863 130.686 103.61C129.445 104.358 127.807 103.998 127.028 102.807C122.185 95.3994 118.018 88.8568 115.105 80.9983C112.177 73.1026 110.556 64.0034 110.556 51.4182C110.556 38.9887 112.099 30.1707 114.997 22.5132C117.88 14.8965 122.059 8.56234 127.048 1.16327C127.844 -0.0173499 129.487 -0.355145 130.717 0.408789Z" fill="#282624"/>
<path fill-rule="evenodd" clip-rule="evenodd" d="M100.684 6.69439C101.844 7.55778 102.052 9.15758 101.151 10.2676C95.9089 16.7217 92.4682 21.9161 90.2906 28.0354C88.1074 34.1705 87.129 41.4206 87.129 52.0512C87.129 62.6977 88.0343 70.1 90.1865 76.386C92.3282 82.6415 95.766 87.9703 101.128 94.3892C102.046 95.4874 101.86 97.0897 100.713 97.9682C99.5663 98.8468 97.893 98.6687 96.9756 97.5706C91.4015 90.8981 87.5483 85.0266 85.1332 77.9726C82.7285 70.949 81.811 62.9326 81.811 52.0512C81.811 41.1538 82.8073 33.2762 85.2569 26.3927C87.712 19.4934 91.5623 13.7783 96.953 7.14105C97.8546 6.03098 99.5252 5.83101 100.684 6.69439Z" fill="#282624"/>
<path fill-rule="evenodd" clip-rule="evenodd" d="M161.411 54.0526H56.0148V49.2631H161.411V54.0526Z" fill="#282624"/>
<path fill-rule="evenodd" clip-rule="evenodd" d="M42.636 50.3628C41.8783 51.1665 40.6125 51.2038 39.8088 50.4461L35.7622 46.6311L31.6759 50.7175C30.8948 51.4986 29.6285 51.4986 28.8474 50.7175C28.0664 49.9365 28.0664 48.6701 28.8474 47.8891L32.8505 43.886L28.8897 40.1519C28.086 39.3942 28.0487 38.1284 28.8064 37.3247C29.5641 36.521 30.8299 36.4837 31.6336 37.2414L35.6801 41.0564L39.454 37.2825C40.2351 36.5014 41.5014 36.5014 42.2825 37.2825C43.0635 38.0635 43.0635 39.3299 42.2825 40.1109L38.5919 43.8015L42.5527 47.5356C43.3564 48.2933 43.3937 49.5591 42.636 50.3628Z" fill="#282624"/>
</svg>
