<svg width="40" height="40" viewBox="0 0 40 40" fill="none" xmlns="http://www.w3.org/2000/svg">
<path fill-rule="evenodd" clip-rule="evenodd" d="M32.02 20.2727C32.02 19.4218 31.9436 18.6036 31.8018 17.8181H20.5V22.4599H26.9582C26.68 23.9599 25.8345 25.2308 24.5636 26.0817V29.0927H28.4418C30.7109 27.0036 32.02 23.9272 32.02 20.2727Z" fill="#4285F4"/>
<path fill-rule="evenodd" clip-rule="evenodd" d="M20.5 32C23.74 32 26.4564 30.9255 28.4418 29.0928L24.5636 26.0818C23.4891 26.8018 22.1145 27.2273 20.5 27.2273C17.3745 27.2273 14.7291 25.1164 13.7855 22.28H9.77637V25.3891C11.7509 29.3109 15.8091 32 20.5 32Z" fill="#34A853"/>
<path fill-rule="evenodd" clip-rule="evenodd" d="M13.7855 22.2799C13.5455 21.5599 13.4091 20.7908 13.4091 19.9999C13.4091 19.209 13.5455 18.4399 13.7855 17.7199V14.6108H9.77636C8.96364 16.2308 8.5 18.0636 8.5 19.9999C8.5 21.9363 8.96364 23.769 9.77636 25.389L13.7855 22.2799Z" fill="#FBBC05"/>
<path fill-rule="evenodd" clip-rule="evenodd" d="M20.5 12.7727C22.2618 12.7727 23.8436 13.3782 25.0873 14.5673L28.5291 11.1255C26.4509 9.18909 23.7345 8 20.5 8C15.8091 8 11.7509 10.6891 9.77637 14.6109L13.7855 17.72C14.7291 14.8836 17.3745 12.7727 20.5 12.7727Z" fill="#EA4335"/>
</svg>
