<svg width="107" height="19" viewBox="0 0 107 19" fill="none" xmlns="http://www.w3.org/2000/svg">
<g clip-path="url(#clip0_852_4757)">
<path d="M1.64 10.2518C1.64 16.4089 6.21956 17.9482 8.5093 17.9482C9.6818 17.9482 11.3795 17.6392 12.8965 16.7444M15.2523 14.4848C15.9289 13.4057 16.36 12.0189 16.36 10.2518C16.36 6.33223 13.9055 3.53295 11.6862 1.92802C10.6831 1.2026 9.43294 1.99931 9.43294 3.23721V3.51743C9.43294 4.76585 8.90804 7.04463 7.44948 7.99242C6.70482 8.47634 5.90059 7.75206 5.81009 6.86866L5.73577 6.14322C5.64938 5.29988 4.79044 4.78792 4.11639 5.30211C3.5345 5.74597 2.94003 6.35005 2.47942 7.12511" stroke="#48CC54" stroke-width="2" stroke-linecap="round"/>
<path d="M6.12 14.8511C6.12 17.3287 8.16801 17.9481 9.19197 17.9481C10.088 17.9481 11.88 17.3287 11.88 14.8511C11.88 13.892 11.3951 13.2446 10.9258 12.871C10.5983 12.6103 10.1378 12.8444 10.0252 13.2615C9.8784 13.8051 9.3479 14.1468 9.07768 13.6589C8.83057 13.2129 8.83057 12.5438 8.83057 12.1411C8.83057 11.5866 8.30378 11.2276 7.88001 11.5536C7.03048 12.2071 6.12 13.3154 6.12 14.8511Z" stroke="#48CC54" stroke-width="1.5"/>
</g>
<g clip-path="url(#clip1_852_4757)">
<path d="M23.64 10.2518C23.64 16.4089 28.2196 17.9482 30.5093 17.9482C31.6818 17.9482 33.3795 17.6392 34.8965 16.7444M37.2523 14.4848C37.9289 13.4057 38.36 12.0189 38.36 10.2518C38.36 6.33223 35.9055 3.53295 33.6862 1.92802C32.6831 1.2026 31.4329 1.99931 31.4329 3.23721V3.51743C31.4329 4.76585 30.908 7.04463 29.4495 7.99242C28.7048 8.47634 27.9006 7.75206 27.8101 6.86866L27.7358 6.14322C27.6494 5.29988 26.7904 4.78792 26.1164 5.30211C25.5345 5.74597 24.94 6.35005 24.4794 7.12511" stroke="#CCC7C3" stroke-width="2" stroke-linecap="round"/>
<path d="M28.12 14.8511C28.12 17.3287 30.168 17.9481 31.192 17.9481C32.088 17.9481 33.88 17.3287 33.88 14.8511C33.88 13.892 33.3951 13.2446 32.9258 12.871C32.5983 12.6103 32.1378 12.8444 32.0252 13.2615C31.8784 13.8051 31.3479 14.1468 31.0777 13.6589C30.8306 13.2129 30.8306 12.5438 30.8306 12.1411C30.8306 11.5866 30.3038 11.2276 29.88 11.5536C29.0305 12.2071 28.12 13.3154 28.12 14.8511Z" stroke="#CCC7C3" stroke-width="1.5"/>
</g>
<g clip-path="url(#clip2_852_4757)">
<path d="M45.64 10.2518C45.64 16.4089 50.2196 17.9482 52.5093 17.9482C53.6818 17.9482 55.3795 17.6392 56.8965 16.7444M59.2523 14.4848C59.9289 13.4057 60.36 12.0189 60.36 10.2518C60.36 6.33223 57.9055 3.53295 55.6862 1.92802C54.6831 1.2026 53.4329 1.99931 53.4329 3.23721V3.51743C53.4329 4.76585 52.908 7.04463 51.4495 7.99242C50.7048 8.47634 49.9006 7.75206 49.8101 6.86866L49.7358 6.14322C49.6494 5.29988 48.7904 4.78792 48.1164 5.30211C47.5345 5.74597 46.94 6.35005 46.4794 7.12511" stroke="#CCC7C3" stroke-width="2" stroke-linecap="round"/>
<path d="M50.12 14.8511C50.12 17.3287 52.168 17.9481 53.192 17.9481C54.088 17.9481 55.88 17.3287 55.88 14.8511C55.88 13.892 55.3951 13.2446 54.9258 12.871C54.5983 12.6103 54.1378 12.8444 54.0252 13.2615C53.8784 13.8051 53.3479 14.1468 53.0777 13.6589C52.8306 13.2129 52.8306 12.5438 52.8306 12.1411C52.8306 11.5866 52.3038 11.2276 51.88 11.5536C51.0305 12.2071 50.12 13.3154 50.12 14.8511Z" stroke="#CCC7C3" stroke-width="1.5"/>
</g>
<path d="M82.536 14.736L82.528 16H75.464V4.536H82.528V5.8H77.016V9.608H81.48V10.824H77.016V14.736H82.536ZM88.6606 12.352C88.0046 12.3733 87.4446 12.4267 86.9806 12.512C86.522 12.592 86.146 12.6987 85.8526 12.832C85.5646 12.9653 85.354 13.1227 85.2206 13.304C85.0926 13.4853 85.0286 13.688 85.0286 13.912C85.0286 14.1253 85.0633 14.3093 85.1326 14.464C85.202 14.6187 85.2953 14.7467 85.4126 14.848C85.5353 14.944 85.6766 15.016 85.8366 15.064C86.002 15.1067 86.178 15.128 86.3646 15.128C86.6153 15.128 86.8446 15.104 87.0526 15.056C87.2606 15.0027 87.4553 14.928 87.6366 14.832C87.8233 14.736 87.9993 14.6213 88.1646 14.488C88.3353 14.3547 88.5006 14.2027 88.6606 14.032V12.352ZM84.0606 9.04C84.5086 8.608 84.9913 8.28533 85.5086 8.072C86.026 7.85867 86.5993 7.752 87.2286 7.752C87.682 7.752 88.0846 7.82667 88.4366 7.976C88.7886 8.12533 89.0846 8.33333 89.3246 8.6C89.5646 8.86667 89.746 9.18933 89.8686 9.568C89.9913 9.94667 90.0526 10.3627 90.0526 10.816V16H89.4206C89.282 16 89.1753 15.9787 89.1006 15.936C89.026 15.888 88.9673 15.7973 88.9246 15.664L88.7646 14.896C88.5513 15.0933 88.3433 15.2693 88.1406 15.424C87.938 15.5733 87.7246 15.7013 87.5006 15.808C87.2766 15.9093 87.0366 15.9867 86.7806 16.04C86.53 16.0987 86.25 16.128 85.9406 16.128C85.626 16.128 85.33 16.0853 85.0526 16C84.7753 15.9093 84.5326 15.776 84.3246 15.6C84.122 15.424 83.9593 15.2027 83.8366 14.936C83.7193 14.664 83.6606 14.344 83.6606 13.976C83.6606 13.656 83.7486 13.3493 83.9246 13.056C84.1006 12.7573 84.386 12.4933 84.7806 12.264C85.1753 12.0347 85.69 11.848 86.3246 11.704C86.9593 11.5547 87.738 11.4693 88.6606 11.448V10.816C88.6606 10.1867 88.5246 9.712 88.2526 9.392C87.9806 9.06667 87.5833 8.904 87.0606 8.904C86.7086 8.904 86.4126 8.94933 86.1726 9.04C85.938 9.12533 85.7326 9.224 85.5566 9.336C85.386 9.44267 85.2366 9.54133 85.1086 9.632C84.986 9.71733 84.8633 9.76 84.7406 9.76C84.6446 9.76 84.562 9.736 84.4926 9.688C84.4233 9.63467 84.3646 9.57067 84.3166 9.496L84.0606 9.04ZM96.9418 9.232C96.8778 9.34933 96.7791 9.408 96.6458 9.408C96.5658 9.408 96.4751 9.37867 96.3738 9.32C96.2724 9.26133 96.1471 9.19733 95.9978 9.128C95.8538 9.05333 95.6804 8.98667 95.4778 8.928C95.2751 8.864 95.0351 8.832 94.7578 8.832C94.5178 8.832 94.3018 8.864 94.1098 8.928C93.9178 8.98667 93.7524 9.06933 93.6138 9.176C93.4804 9.28267 93.3764 9.408 93.3018 9.552C93.2324 9.69067 93.1978 9.84267 93.1978 10.008C93.1978 10.216 93.2564 10.3893 93.3738 10.528C93.4964 10.6667 93.6564 10.7867 93.8538 10.888C94.0511 10.9893 94.2751 11.08 94.5258 11.16C94.7764 11.2347 95.0324 11.3173 95.2938 11.408C95.5604 11.4933 95.8191 11.5893 96.0698 11.696C96.3204 11.8027 96.5444 11.936 96.7418 12.096C96.9391 12.256 97.0964 12.4533 97.2138 12.688C97.3364 12.9173 97.3978 13.1947 97.3978 13.52C97.3978 13.8933 97.3311 14.24 97.1978 14.56C97.0644 14.8747 96.8671 15.1493 96.6058 15.384C96.3444 15.6133 96.0244 15.7947 95.6458 15.928C95.2671 16.0613 94.8298 16.128 94.3338 16.128C93.7684 16.128 93.2564 16.0373 92.7978 15.856C92.3391 15.6693 91.9498 15.432 91.6298 15.144L91.9658 14.6C92.0084 14.5307 92.0591 14.4773 92.1178 14.44C92.1764 14.4027 92.2511 14.384 92.3418 14.384C92.4378 14.384 92.5391 14.4213 92.6458 14.496C92.7524 14.5707 92.8804 14.6533 93.0298 14.744C93.1844 14.8347 93.3711 14.9173 93.5898 14.992C93.8084 15.0667 94.0804 15.104 94.4058 15.104C94.6831 15.104 94.9258 15.0693 95.1337 15C95.3418 14.9253 95.5151 14.8267 95.6538 14.704C95.7924 14.5813 95.8938 14.44 95.9578 14.28C96.0271 14.12 96.0618 13.9493 96.0618 13.768C96.0618 13.544 96.0004 13.36 95.8778 13.216C95.7604 13.0667 95.6031 12.9413 95.4058 12.84C95.2084 12.7333 94.9818 12.6427 94.7258 12.568C94.4751 12.488 94.2164 12.4053 93.9498 12.32C93.6884 12.2347 93.4298 12.1387 93.1738 12.032C92.9231 11.92 92.6991 11.7813 92.5018 11.616C92.3044 11.4507 92.1444 11.248 92.0218 11.008C91.9044 10.7627 91.8458 10.4667 91.8458 10.12C91.8458 9.81067 91.9098 9.51467 92.0378 9.232C92.1658 8.944 92.3524 8.69333 92.5978 8.48C92.8431 8.26133 93.1444 8.088 93.5018 7.96C93.8591 7.832 94.2671 7.768 94.7258 7.768C95.2591 7.768 95.7364 7.85333 96.1578 8.024C96.5844 8.18933 96.9524 8.41867 97.2618 8.712L96.9418 9.232ZM105.995 7.896L101.475 18.392C101.427 18.4987 101.366 18.584 101.291 18.648C101.222 18.712 101.112 18.744 100.963 18.744H99.907L101.387 15.528L98.043 7.896H99.275C99.3977 7.896 99.4937 7.928 99.563 7.992C99.6377 8.05067 99.6883 8.11733 99.715 8.192L101.883 13.296C101.968 13.52 102.04 13.7547 102.099 14C102.174 13.7493 102.254 13.512 102.339 13.288L104.443 8.192C104.475 8.10667 104.528 8.03733 104.603 7.984C104.683 7.92533 104.771 7.896 104.867 7.896H105.995Z" fill="black"/>
<defs>
<clipPath id="clip0_852_4757">
<rect width="18" height="19" fill="white"/>
</clipPath>
<clipPath id="clip1_852_4757">
<rect width="18" height="19" fill="white" transform="translate(22)"/>
</clipPath>
<clipPath id="clip2_852_4757">
<rect width="18" height="19" fill="white" transform="translate(44)"/>
</clipPath>
</defs>
</svg>
