<svg width="117" height="39" viewBox="0 0 117 39" fill="none" xmlns="http://www.w3.org/2000/svg">
<circle cx="19.5" cy="19.5" r="19" stroke="#FFF8ED" stroke-linecap="round"/>
<circle cx="19.5" cy="19.5" r="16" stroke="#FFF8ED" stroke-linecap="round" stroke-dasharray="2 4 6 8"/>
<path d="M28 16.5588C28 14.2578 26.1164 12.3858 23.8011 12.3858C23.7006 12.3858 23.599 12.3895 23.4969 12.3971C22.5006 10.9089 20.8127 10 19 10C17.1873 10 15.4994 10.9091 14.5031 12.3971C14.4011 12.3895 14.2995 12.3858 14.1989 12.3858C11.8836 12.3858 10 14.2578 10 16.5588C10 18.658 11.568 20.3993 13.6011 20.6886V26.4557C13.6011 27.3073 14.2984 28 15.1555 28H22.8446C23.7017 28 24.3989 27.3072 24.3989 26.4557V20.6886C26.432 20.3993 28 18.6579 28 16.5588ZM22.8446 26.8121H15.1555C14.9612 26.8121 14.7968 26.6488 14.7968 26.4556V20.6892C15.3826 20.6067 15.9387 20.403 16.4403 20.0861C17.2097 20.4996 18.0848 20.7316 19 20.7316C19.9152 20.7316 20.7902 20.4996 21.5596 20.0862C22.0614 20.403 22.6176 20.6067 23.2032 20.6892V26.4556C23.2032 26.6488 23.039 26.8121 22.8446 26.8121ZM23.8011 19.5437C23.3987 19.5437 23.0097 19.4656 22.6482 19.3155C23.3758 18.6528 23.9258 17.7915 24.2019 16.8016C24.2901 16.4855 24.1037 16.1581 23.7855 16.0705C23.4672 15.9829 23.1379 16.1682 23.0496 16.4842C22.5472 18.2856 20.8819 19.5437 19 19.5437C17.1181 19.5437 15.4529 18.2856 14.9504 16.4842C14.8623 16.1681 14.533 15.9829 14.2145 16.0705C13.8963 16.1581 13.7099 16.4855 13.7981 16.8016C14.0742 17.7915 14.6242 18.6528 15.3518 19.3155C14.9903 19.4656 14.6013 19.5437 14.1989 19.5437C12.5429 19.5437 11.1957 18.2047 11.1957 16.5588C11.1957 14.9128 12.543 13.5737 14.1989 13.5737C14.3663 13.5737 14.5386 13.5886 14.7112 13.6179C14.9602 13.6601 15.2096 13.5424 15.3334 13.3233C16.0779 12.0062 17.4829 11.1879 18.9999 11.1879C20.517 11.1879 21.9219 12.0062 22.6666 13.3234C22.7904 13.5424 23.0396 13.6602 23.2888 13.6179C23.4614 13.5886 23.6337 13.5737 23.801 13.5737C25.457 13.5737 26.8042 14.9128 26.8042 16.5588C26.8043 18.2047 25.4571 19.5437 23.8011 19.5437Z" fill="#FFF8ED"/>
<path d="M53.72 20V8.2H49.08V6H60.96V8.2H56.32V20H53.72ZM60.2281 20L66.5281 6H69.0881L75.4081 20H72.6881L67.2681 7.38H68.3081L62.9081 20H60.2281ZM63.1281 16.76L63.8281 14.72H71.3881L72.0881 16.76H63.1281ZM81.5286 20.2C80.4353 20.2 79.3886 20.0467 78.3886 19.74C77.3886 19.42 76.5953 19.0133 76.0086 18.52L76.9086 16.5C77.4686 16.94 78.1619 17.3067 78.9886 17.6C79.8153 17.8933 80.6619 18.04 81.5286 18.04C82.2619 18.04 82.8553 17.96 83.3086 17.8C83.7619 17.64 84.0953 17.4267 84.3086 17.16C84.5219 16.88 84.6286 16.5667 84.6286 16.22C84.6286 15.7933 84.4753 15.4533 84.1686 15.2C83.8619 14.9333 83.4619 14.7267 82.9686 14.58C82.4886 14.42 81.9486 14.2733 81.3486 14.14C80.7619 14.0067 80.1686 13.8533 79.5686 13.68C78.9819 13.4933 78.4419 13.26 77.9486 12.98C77.4686 12.6867 77.0753 12.3 76.7686 11.82C76.4619 11.34 76.3086 10.7267 76.3086 9.98C76.3086 9.22 76.5086 8.52667 76.9086 7.9C77.3219 7.26 77.9419 6.75333 78.7686 6.38C79.6086 5.99333 80.6686 5.8 81.9486 5.8C82.7886 5.8 83.6219 5.90667 84.4486 6.12C85.2753 6.33333 85.9953 6.64 86.6086 7.04L85.7886 9.06C85.1619 8.68667 84.5153 8.41333 83.8486 8.24C83.1819 8.05333 82.5419 7.96 81.9286 7.96C81.2086 7.96 80.6219 8.04667 80.1686 8.22C79.7286 8.39333 79.4019 8.62 79.1886 8.9C78.9886 9.18 78.8886 9.5 78.8886 9.86C78.8886 10.2867 79.0353 10.6333 79.3286 10.9C79.6353 11.1533 80.0286 11.3533 80.5086 11.5C81.0019 11.6467 81.5486 11.7933 82.1486 11.94C82.7486 12.0733 83.3419 12.2267 83.9286 12.4C84.5286 12.5733 85.0686 12.8 85.5486 13.08C86.0419 13.36 86.4353 13.74 86.7286 14.22C87.0353 14.7 87.1886 15.3067 87.1886 16.04C87.1886 16.7867 86.9819 17.48 86.5686 18.12C86.1686 18.7467 85.5486 19.2533 84.7086 19.64C83.8686 20.0133 82.8086 20.2 81.5286 20.2ZM92.4114 20V8.2H87.7714V6H99.6514V8.2H95.0114V20H92.4114ZM104.828 20V14.46L105.408 16.06L99.3278 6H102.108L106.988 14.1H105.428L110.348 6H112.908L106.828 16.06L107.428 14.46V20H104.828Z" fill="#FFF8ED"/>
<path d="M61.044 27.402V36H60.024V29.682C60.024 29.598 60.026 29.508 60.03 29.412C60.038 29.316 60.046 29.218 60.054 29.118L57.102 34.494C57.01 34.674 56.87 34.764 56.682 34.764H56.514C56.326 34.764 56.186 34.674 56.094 34.494L53.082 29.094C53.106 29.306 53.118 29.502 53.118 29.682V36H52.098V27.402H52.956C53.06 27.402 53.14 27.412 53.196 27.432C53.252 27.452 53.306 27.508 53.358 27.6L56.328 32.892C56.376 32.988 56.422 33.088 56.466 33.192C56.514 33.296 56.558 33.402 56.598 33.51C56.638 33.402 56.68 33.296 56.724 33.192C56.768 33.084 56.816 32.982 56.868 32.886L59.784 27.6C59.832 27.508 59.884 27.452 59.94 27.432C60 27.412 60.082 27.402 60.186 27.402H61.044ZM71.9065 31.704C71.9065 32.348 71.8045 32.94 71.6005 33.48C71.3965 34.016 71.1085 34.478 70.7365 34.866C70.3645 35.254 69.9165 35.556 69.3925 35.772C68.8725 35.984 68.2965 36.09 67.6645 36.09C67.0325 36.09 66.4565 35.984 65.9365 35.772C65.4165 35.556 64.9705 35.254 64.5985 34.866C64.2265 34.478 63.9385 34.016 63.7345 33.48C63.5305 32.94 63.4285 32.348 63.4285 31.704C63.4285 31.06 63.5305 30.47 63.7345 29.934C63.9385 29.394 64.2265 28.93 64.5985 28.542C64.9705 28.15 65.4165 27.846 65.9365 27.63C66.4565 27.414 67.0325 27.306 67.6645 27.306C68.2965 27.306 68.8725 27.414 69.3925 27.63C69.9165 27.846 70.3645 28.15 70.7365 28.542C71.1085 28.93 71.3965 29.394 71.6005 29.934C71.8045 30.47 71.9065 31.06 71.9065 31.704ZM70.7125 31.704C70.7125 31.176 70.6405 30.702 70.4965 30.282C70.3525 29.862 70.1485 29.508 69.8845 29.22C69.6205 28.928 69.3005 28.704 68.9245 28.548C68.5485 28.392 68.1285 28.314 67.6645 28.314C67.2045 28.314 66.7865 28.392 66.4105 28.548C66.0345 28.704 65.7125 28.928 65.4445 29.22C65.1805 29.508 64.9765 29.862 64.8325 30.282C64.6885 30.702 64.6165 31.176 64.6165 31.704C64.6165 32.232 64.6885 32.706 64.8325 33.126C64.9765 33.542 65.1805 33.896 65.4445 34.188C65.7125 34.476 66.0345 34.698 66.4105 34.854C66.7865 35.006 67.2045 35.082 67.6645 35.082C68.1285 35.082 68.5485 35.006 68.9245 34.854C69.3005 34.698 69.6205 34.476 69.8845 34.188C70.1485 33.896 70.3525 33.542 70.4965 33.126C70.6405 32.706 70.7125 32.232 70.7125 31.704ZM83.2379 27.402V36H82.2179V29.682C82.2179 29.598 82.2199 29.508 82.2239 29.412C82.2319 29.316 82.2399 29.218 82.2479 29.118L79.2959 34.494C79.2039 34.674 79.0639 34.764 78.8759 34.764H78.7079C78.5199 34.764 78.3799 34.674 78.2879 34.494L75.2759 29.094C75.2999 29.306 75.3119 29.502 75.3119 29.682V36H74.2919V27.402H75.1499C75.2539 27.402 75.3339 27.412 75.3899 27.432C75.4459 27.452 75.4999 27.508 75.5519 27.6L78.5219 32.892C78.5699 32.988 78.6159 33.088 78.6599 33.192C78.7079 33.296 78.7519 33.402 78.7919 33.51C78.8319 33.402 78.8739 33.296 78.9179 33.192C78.9619 33.084 79.0099 32.982 79.0619 32.886L81.9779 27.6C82.0259 27.508 82.0779 27.452 82.1339 27.432C82.1939 27.412 82.2759 27.402 82.3799 27.402H83.2379ZM91.4604 35.052L91.4544 36H86.1564V27.402H91.4544V28.35H87.3204V31.206H90.6684V32.118H87.3204V35.052H91.4604ZM100.768 27.402V36H100.186C100.094 36 100.016 35.984 99.9522 35.952C99.8922 35.92 99.8322 35.866 99.7722 35.79L94.7982 29.31C94.8062 29.41 94.8122 29.508 94.8162 29.604C94.8202 29.7 94.8222 29.79 94.8222 29.874V36H93.8022V27.402H94.4022C94.4542 27.402 94.4982 27.406 94.5342 27.414C94.5702 27.418 94.6022 27.428 94.6302 27.444C94.6582 27.456 94.6862 27.476 94.7142 27.504C94.7422 27.528 94.7722 27.56 94.8042 27.6L99.7782 34.074C99.7702 33.97 99.7622 33.87 99.7542 33.774C99.7502 33.674 99.7482 33.58 99.7482 33.492V27.402H100.768ZM109.5 28.38H106.716V36H105.558V28.38H102.768V27.402H109.5V28.38ZM115.859 28.746C115.823 28.806 115.783 28.852 115.739 28.884C115.699 28.912 115.649 28.926 115.589 28.926C115.521 28.926 115.441 28.892 115.349 28.824C115.257 28.756 115.141 28.682 115.001 28.602C114.865 28.518 114.699 28.442 114.503 28.374C114.311 28.306 114.077 28.272 113.801 28.272C113.541 28.272 113.311 28.308 113.111 28.38C112.915 28.448 112.749 28.542 112.613 28.662C112.481 28.782 112.381 28.924 112.313 29.088C112.245 29.248 112.211 29.422 112.211 29.61C112.211 29.85 112.269 30.05 112.385 30.21C112.505 30.366 112.661 30.5 112.853 30.612C113.049 30.724 113.269 30.822 113.513 30.906C113.761 30.986 114.013 31.07 114.269 31.158C114.529 31.246 114.781 31.346 115.025 31.458C115.273 31.566 115.493 31.704 115.685 31.872C115.881 32.04 116.037 32.246 116.153 32.49C116.273 32.734 116.333 33.034 116.333 33.39C116.333 33.766 116.269 34.12 116.141 34.452C116.013 34.78 115.825 35.066 115.577 35.31C115.333 35.554 115.031 35.746 114.671 35.886C114.315 36.026 113.909 36.096 113.453 36.096C112.893 36.096 112.385 35.996 111.929 35.796C111.473 35.592 111.083 35.318 110.759 34.974L111.095 34.422C111.127 34.378 111.165 34.342 111.209 34.314C111.257 34.282 111.309 34.266 111.365 34.266C111.417 34.266 111.475 34.288 111.539 34.332C111.607 34.372 111.683 34.424 111.767 34.488C111.851 34.552 111.947 34.622 112.055 34.698C112.163 34.774 112.285 34.844 112.421 34.908C112.561 34.972 112.719 35.026 112.895 35.07C113.071 35.11 113.269 35.13 113.489 35.13C113.765 35.13 114.011 35.092 114.227 35.016C114.443 34.94 114.625 34.834 114.773 34.698C114.925 34.558 115.041 34.392 115.121 34.2C115.201 34.008 115.241 33.794 115.241 33.558C115.241 33.298 115.181 33.086 115.061 32.922C114.945 32.754 114.791 32.614 114.599 32.502C114.407 32.39 114.187 32.296 113.939 32.22C113.691 32.14 113.439 32.06 113.183 31.98C112.927 31.896 112.675 31.8 112.427 31.692C112.179 31.584 111.959 31.444 111.767 31.272C111.575 31.1 111.419 30.886 111.299 30.63C111.183 30.37 111.125 30.05 111.125 29.67C111.125 29.366 111.183 29.072 111.299 28.788C111.419 28.504 111.591 28.252 111.815 28.032C112.043 27.812 112.321 27.636 112.649 27.504C112.981 27.372 113.361 27.306 113.789 27.306C114.269 27.306 114.705 27.382 115.097 27.534C115.493 27.686 115.841 27.906 116.141 28.194L115.859 28.746Z" fill="#FFF8ED"/>
</svg>
