<svg width="24" height="24" viewBox="0 0 24 24" fill="none" xmlns="http://www.w3.org/2000/svg">
<path d="M5.72253 14.6715L5.4036 15.0215V6.16664C5.4036 5.85723 5.28773 5.56049 5.08148 5.3417C4.87524 5.12291 4.5955 5 4.30382 5C4.01215 5 3.73241 5.12291 3.52617 5.3417C3.31992 5.56049 3.20405 5.85723 3.20405 6.16664V15.0215L2.88512 14.6715C2.67802 14.4518 2.39715 14.3284 2.10427 14.3284C1.8114 14.3284 1.53053 14.4518 1.32343 14.6715C1.11634 14.8912 1 15.1891 1 15.4998C1 15.8105 1.11634 16.1084 1.32343 16.3281L3.52298 18.6614C3.62758 18.7676 3.75091 18.8509 3.88591 18.9064C4.01755 18.9681 4.1599 19 4.30382 19C4.44775 19 4.5901 18.9681 4.72174 18.9064C4.85674 18.8509 4.98007 18.7676 5.08467 18.6614L7.28422 16.3281C7.38676 16.2193 7.4681 16.0902 7.52359 15.9481C7.57909 15.806 7.60765 15.6536 7.60765 15.4998C7.60765 15.346 7.57909 15.1936 7.52359 15.0515C7.4681 14.9094 7.38676 14.7803 7.28422 14.6715C7.18167 14.5627 7.05994 14.4764 6.92596 14.4175C6.79199 14.3587 6.64839 14.3284 6.50338 14.3284C6.35836 14.3284 6.21476 14.3587 6.08079 14.4175C5.94681 14.4764 5.82508 14.5627 5.72253 14.6715ZM10.9025 7.33329H21.9002C22.1919 7.33329 22.4716 7.21037 22.6779 6.99159C22.8841 6.7728 23 6.47606 23 6.16664C23 5.85723 22.8841 5.56049 22.6779 5.3417C22.4716 5.12291 22.1919 5 21.9002 5H10.9025C10.6108 5 10.3311 5.12291 10.1248 5.3417C9.91857 5.56049 9.8027 5.85723 9.8027 6.16664C9.8027 6.47606 9.91857 6.7728 10.1248 6.99159C10.3311 7.21037 10.6108 7.33329 10.9025 7.33329ZM21.9002 10.8332H10.9025C10.6108 10.8332 10.3311 10.9561 10.1248 11.1749C9.91857 11.3937 9.8027 11.6905 9.8027 11.9999C9.8027 12.3093 9.91857 12.606 10.1248 12.8248C10.3311 13.0436 10.6108 13.1665 10.9025 13.1665H21.9002C22.1919 13.1665 22.4716 13.0436 22.6779 12.8248C22.8841 12.606 23 12.3093 23 11.9999C23 11.6905 22.8841 11.3937 22.6779 11.1749C22.4716 10.9561 22.1919 10.8332 21.9002 10.8332ZM21.9002 16.6664H10.9025C10.6108 16.6664 10.3311 16.7894 10.1248 17.0081C9.91857 17.2269 9.8027 17.5237 9.8027 17.8331C9.8027 18.1425 9.91857 18.4392 10.1248 18.658C10.3311 18.8768 10.6108 18.9997 10.9025 18.9997H21.9002C22.1919 18.9997 22.4716 18.8768 22.6779 18.658C22.8841 18.4392 23 18.1425 23 17.8331C23 17.5237 22.8841 17.2269 22.6779 17.0081C22.4716 16.7894 22.1919 16.6664 21.9002 16.6664Z" fill="#CD5C08"/>
</svg>
