<svg width="64" height="64" viewBox="0 0 64 64" fill="none" xmlns="http://www.w3.org/2000/svg">
<path d="M30.2066 8.96657C30.9403 7.48024 33.0598 7.48024 33.7934 8.96657L39.7751 21.0848C40.0662 21.6745 40.6286 22.0834 41.2793 22.1786L54.6591 24.1342C56.2989 24.3739 56.9525 26.3896 55.7653 27.5459L46.0869 36.9727C45.6152 37.4321 45.3998 38.0944 45.5112 38.7435L47.7949 52.0586C48.0751 53.6925 46.36 54.9384 44.8927 54.1668L32.9309 47.8762C32.3481 47.5697 31.6519 47.5697 31.0691 47.8762L19.1073 54.1668C17.64 54.9384 15.9249 53.6925 16.2052 52.0586L18.4889 38.7435C18.6002 38.0944 18.3848 37.4321 17.9131 36.9727L8.2347 27.5459C7.04751 26.3896 7.70108 24.3739 9.34091 24.1342L22.7207 22.1786C23.3715 22.0834 23.9338 21.6745 24.2249 21.0848L30.2066 8.96657Z" fill="#CD5C08"/>
</svg>
