<svg width="1442" height="250" viewBox="0 0 1442 250" fill="none" xmlns="http://www.w3.org/2000/svg">
<path d="M1 123.24H31C61 123.24 121 123.239 181 147.117C241 170.994 301 218.748 361 204.422C421 190.096 481 113.688 541 89.8113C601 65.9341 661 94.5868 721 128.015C781 161.443 841 199.646 901 223.524C961 247.401 1021 256.952 1081 242.625C1141 228.299 1201 190.096 1261 166.219C1321 142.341 1381 132.79 1411 128.015L1441 123.24V0.5H1L1 123.24Z" fill="#FFC295"/>
<path d="M1 83.1499H31C61 83.1499 121 83.1499 181 106.977C241 130.803 301 178.456 361 164.16C421 149.864 481 73.6193 541 49.7927C601 25.966 661 54.558 721 87.9153C781 121.273 841 159.395 901 183.222C961 207.048 1021 216.579 1081 202.283C1141 187.987 1201 149.864 1261 126.038C1321 102.211 1381 92.6806 1411 87.9153L1441 83.1499" stroke="#FFF8ED" stroke-width="8" stroke-dasharray="8 20 72 64 24 20 8 20 80 80"/>
</svg>
